<?xml version="1.0" encoding="iso-8859-1"?>
<!-- Generator: Adobe Illustrator 19.0.0, SVG Export Plug-In . SVG Version: 6.00 Build 0)  -->
<svg version="1.1" id="Layer_1" xmlns="http://www.w3.org/2000/svg" xmlns:xlink="http://www.w3.org/1999/xlink" x="0px" y="0px"
	 viewBox="0 0 491.52 491.52" style="enable-background:new 0 0 491.52 491.52;" xml:space="preserve">
<g>
	<rect x="381.491" y="453.888" style="fill:#E1E6E9;" width="18.099" height="17.874"/>
	<rect x="200.499" y="453.888" style="fill:#E1E6E9;" width="18.099" height="17.874"/>
	<rect x="91.909" y="453.888" style="fill:#E1E6E9;" width="18.099" height="17.874"/>
	<rect x="128.102" y="453.888" style="fill:#E1E6E9;" width="18.094" height="17.874"/>
	<rect x="236.698" y="453.888" style="fill:#E1E6E9;" width="18.099" height="17.874"/>
	<rect x="272.896" y="453.888" style="fill:#E1E6E9;" width="18.099" height="17.874"/>
	<rect x="164.301" y="453.888" style="fill:#E1E6E9;" width="18.099" height="17.874"/>
	<rect x="309.094" y="453.888" style="fill:#E1E6E9;" width="18.099" height="17.874"/>
	<rect x="345.293" y="453.888" style="fill:#E1E6E9;" width="18.099" height="17.874"/>
	<rect x="19.738" y="164.301" style="fill:#E1E6E9;" width="17.874" height="18.099"/>
	<rect x="19.738" y="236.698" style="fill:#E1E6E9;" width="17.874" height="18.099"/>
	<rect x="19.738" y="200.499" style="fill:#E1E6E9;" width="17.874" height="18.099"/>
	<rect x="19.738" y="91.914" style="fill:#E1E6E9;" width="17.874" height="18.099"/>
	<rect x="19.738" y="381.491" style="fill:#E1E6E9;" width="17.874" height="18.099"/>
	<rect x="19.738" y="128.102" style="fill:#E1E6E9;" width="17.874" height="18.099"/>
	<rect x="19.738" y="272.896" style="fill:#E1E6E9;" width="17.874" height="18.099"/>
	<rect x="19.738" y="309.094" style="fill:#E1E6E9;" width="17.874" height="18.099"/>
	<rect x="19.738" y="345.293" style="fill:#E1E6E9;" width="17.874" height="18.099"/>
	<rect x="128.102" y="19.738" style="fill:#E1E6E9;" width="18.099" height="17.874"/>
	<rect x="91.909" y="19.738" style="fill:#E1E6E9;" width="18.099" height="17.874"/>
	<rect x="164.301" y="19.738" style="fill:#E1E6E9;" width="18.099" height="17.874"/>
	<rect x="309.094" y="19.738" style="fill:#E1E6E9;" width="18.099" height="17.874"/>
	<rect x="345.293" y="19.738" style="fill:#E1E6E9;" width="18.099" height="17.874"/>
	<rect x="381.491" y="19.738" style="fill:#E1E6E9;" width="18.099" height="17.874"/>
	<rect x="200.499" y="19.738" style="fill:#E1E6E9;" width="18.099" height="17.874"/>
	<rect x="236.698" y="19.738" style="fill:#E1E6E9;" width="18.099" height="17.874"/>
	<rect x="272.896" y="19.738" style="fill:#E1E6E9;" width="18.099" height="17.874"/>
	<rect x="453.888" y="236.698" style="fill:#E1E6E9;" width="17.874" height="18.099"/>
	<rect x="453.888" y="272.896" style="fill:#E1E6E9;" width="17.874" height="18.099"/>
	<rect x="453.888" y="200.499" style="fill:#E1E6E9;" width="17.874" height="18.099"/>
	<rect x="453.888" y="345.293" style="fill:#E1E6E9;" width="17.874" height="18.089"/>
	<rect x="453.888" y="309.094" style="fill:#E1E6E9;" width="17.874" height="18.099"/>
	<rect x="453.888" y="381.491" style="fill:#E1E6E9;" width="17.874" height="18.099"/>
	<rect x="453.888" y="164.301" style="fill:#E1E6E9;" width="17.874" height="18.099"/>
	<rect x="453.888" y="128.102" style="fill:#E1E6E9;" width="17.874" height="18.099"/>
	<polygon style="fill:#E1E6E9;" points="471.783,417.711 453.91,417.711 453.91,434.177 434.176,434.177 434.176,453.912 
		417.709,453.912 417.709,471.785 434.176,471.785 434.176,491.52 491.52,491.52 491.52,434.177 471.783,434.177 	"/>
	<rect x="453.888" y="91.914" style="fill:#E1E6E9;" width="17.874" height="18.099"/>
	<polygon style="fill:#E1E6E9;" points="57.343,0 0,0 0,57.344 19.737,57.344 19.737,73.813 37.61,73.813 37.61,57.344 
		57.343,57.344 57.343,37.612 73.811,37.612 73.811,19.739 57.343,19.739 	"/>
	<polygon style="fill:#E1E6E9;" points="434.176,0 434.176,19.739 417.709,19.739 417.709,37.612 434.176,37.612 434.176,57.344 
		453.91,57.344 453.91,73.813 471.783,73.813 471.783,57.344 491.52,57.344 491.52,0 	"/>
	<polygon style="fill:#E1E6E9;" points="57.343,434.177 37.61,434.177 37.61,417.711 19.737,417.711 19.737,434.177 0,434.177 
		0,491.52 57.343,491.52 57.343,471.785 73.811,471.785 73.811,453.912 57.343,453.912 	"/>
</g>
<rect x="75.233" y="227.789" style="fill:#F6C358;" width="341.043" height="17.874"/>
<path style="fill:#3A556A;" d="M74.832,70.278v135.517h341.857V70.278H74.832z M219.561,138.037L92.705,184.099V91.973
	L219.561,138.037z M134.579,88.151h222.362L245.76,128.524L134.579,88.151z M245.76,147.55l111.181,40.372H134.579L245.76,147.55z
	 M271.959,138.037l126.856-46.063v92.126L271.959,138.037z"/>
<rect x="75.233" y="272.998" style="fill:#E1E6E9;" width="161.469" height="17.874"/>
<rect x="254.812" y="272.998" style="fill:#27A2DB;" width="161.469" height="17.874"/>
<g>
	<rect x="75.233" y="318.259" style="fill:#E1E6E9;" width="161.469" height="17.874"/>
	<rect x="254.812" y="318.259" style="fill:#E1E6E9;" width="161.469" height="17.874"/>
	<rect x="75.233" y="363.52" style="fill:#E1E6E9;" width="161.469" height="17.874"/>
	<rect x="254.812" y="363.52" style="fill:#E1E6E9;" width="161.469" height="17.874"/>
	<rect x="75.233" y="408.781" style="fill:#E1E6E9;" width="161.469" height="17.874"/>
	<rect x="254.812" y="408.781" style="fill:#E1E6E9;" width="161.469" height="17.874"/>
</g>
<g>
</g>
<g>
</g>
<g>
</g>
<g>
</g>
<g>
</g>
<g>
</g>
<g>
</g>
<g>
</g>
<g>
</g>
<g>
</g>
<g>
</g>
<g>
</g>
<g>
</g>
<g>
</g>
<g>
</g>
</svg>
